<?xml version="1.0" encoding="UTF-8"?>
<svg xmlns="http://www.w3.org/2000/svg" version="1.1" viewBox="0 0 446.5 446.5">
  <defs>
    <style>
      .cls-1, .cls-2 {
        fill: #fff;
      }

      .cls-3 {
        fill: none;
        stroke-dasharray: 8.86 17.71 8.86 17.71;
      }

      .cls-3, .cls-2 {
        stroke: #919191;
        stroke-miterlimit: 10;
        stroke-width: 2px;
      }
    </style>
  </defs>
  <!-- Generator: Adobe Illustrator 28.7.1, SVG Export Plug-In . SVG Version: 1.2.0 Build 142)  -->
  <g>
    <g id="Warstwa_1">
      <path class="cls-1" d="M50.51,395.83c3.2,0,5.16,0,7.12,0,33.17,0,66.34-.08,99.5.08,5.73.03,10.21-1.55,14.21-5.78,7.44-7.87,15.28-15.36,22.91-23.05,6.48-6.52,6.51-12.6.11-19.06-6.33-6.4-12.74-12.72-19.08-19.11-6.72-6.77-6.76-12.75-.14-19.43,6.22-6.27,12.5-12.49,18.73-18.75,6.97-7.02,7.03-12.9.18-19.78-8-8.03-15.81-16.26-24.16-23.91-2.58-2.36-6.63-4.38-10.02-4.41-35.16-.32-70.33-.2-105.5-.19-1.13,0-2.25.16-3.66.26v37.56c1.98.1,3.9.29,5.83.29,33,.02,66,0,99,.02,8.81,0,10.02,1.24,10.02,10.15,0,19.33.01,38.67,0,58,0,7.31-1.49,8.84-8.74,8.85-33.33.02-66.67.01-100,.01h-6.26v37.89c-1.68-1.28-2.72-1.92-3.56-2.75-10.16-10.11-20.51-20.05-30.27-30.54-2.56-2.76-4.59-7.25-4.61-10.95-.26-85.33-.18-170.67-.24-256.01,0-4.68,1.61-8.29,4.88-11.54,22.32-22.22,44.6-44.49,66.82-66.83,3.39-3.41,7.13-5,11.99-4.99,85,.08,170,.02,255.01.19,3.41,0,7.74.96,10.05,3.15,11.73,11.1,22.93,22.75,34.99,34.89h-38.03c0,2.55,0,4.47,0,6.4,0,33.17,0,66.34,0,99.5,0,8.31-1.27,9.58-9.52,9.58-19.33,0-38.67,0-58,0-7.92,0-9.53-1.48-9.48-9.21.16-22.29.44-44.58.59-66.87.09-12.79.02-25.57.02-38.71h-38.76v4.99c0,34.17.06,68.34-.06,102.5-.02,5.03,1.55,8.93,5.14,12.44,9.55,9.31,18.97,18.74,28.29,28.28,3.38,3.46,7.21,5.02,12.01,5,20.83-.09,41.67-.1,62.5,0,5.01.03,8.91-1.66,12.41-5.26,9.17-9.42,18.45-18.74,27.89-27.88,3.76-3.64,5.31-7.7,5.29-12.89-.12-33.5-.06-67-.06-100.5,0-1.94,0-3.87,0-6.88,1.94,1.67,3.06,2.52,4.05,3.5,9.8,9.76,19.52,19.61,29.39,29.3,3.55,3.49,5.23,7.38,5.22,12.42-.08,84.84-.08,169.67,0,254.51,0,5.01-1.53,8.95-5.11,12.46-9.89,9.67-19.6,19.53-29.39,29.3-1.01,1.01-2.1,1.93-4.12,3.78v-38.27h-6.55c-32.83,0-65.67,0-98.5,0-9.06,0-10.27-1.23-10.27-10.49,0-18.67,0-37.33,0-56,0-9.19,1.3-10.52,10.32-10.52,32.83,0,65.67,0,98.5,0,1.96,0,3.91,0,6.16,0v-37.88c-1.9-.09-3.66-.24-5.41-.24-34-.01-68,.05-102-.07-5.01-.02-8.97,1.42-12.48,5.04-7.77,8.02-15.78,15.8-23.64,23.73-6.49,6.55-6.49,12.58-.04,19.1,6.45,6.52,12.99,12.94,19.43,19.47,6.2,6.28,6.25,12.49.11,18.74-6.43,6.54-12.97,12.96-19.43,19.46-6.54,6.59-6.6,12.54-.13,19.06,7.75,7.81,15.68,15.44,23.27,23.4,3.74,3.92,7.91,5.56,13.29,5.54,33.5-.12,67-.06,100.5-.06,1.9,0,3.81,0,5.71,0,.26.53.51,1.06.77,1.59-5.74,5.46-11.54,10.88-17.22,16.41-5.37,5.23-10.31,10.97-16.05,15.74-2.96,2.46-7.26,4.66-10.96,4.68-85.34.26-170.67.23-256.01.08-3.11,0-7.08-.89-9.18-2.9-11.77-11.26-23.08-23-35.56-35.6ZM203.69,50.64c-1.17-.09-2.12-.22-3.08-.22-35.32-.01-70.65-.13-105.97.19-3.41.03-7.52,1.97-10.07,4.35-10.09,9.45-19.63,19.48-29.5,29.17-3.33,3.27-4.73,7-4.71,11.61.09,20.99.09,41.99,0,62.98-.02,4.64,1.5,8.31,4.82,11.57,9.51,9.32,18.98,18.69,28.22,28.27,3.77,3.91,7.99,5.46,13.34,5.44,33.82-.12,67.65-.06,101.47-.07,1.76,0,3.53-.16,5.31-.24v-38.12c-2.37,0-4.34,0-6.32,0-33.16,0-66.32,0-99.47,0-7.59,0-9.04-1.45-9.05-9.09-.02-19.33-.02-38.66,0-57.98,0-8.57,1.24-9.8,9.9-9.8,32.92,0,65.84,0,98.76-.02,2.08,0,4.15-.24,6.35-.38v-37.64ZM300.14,319.13c0,10.64,8.32,19.01,18.9,19.05,10.57.04,19.05-8.32,19.14-18.87.09-10.87-8.26-19.23-19.17-19.18-10.72.05-18.88,8.26-18.87,18.99ZM69.47,300.13c-10.57.03-19.01,8.43-19.04,18.96-.03,10.44,8.5,19.02,18.99,19.09,10.77.07,19.35-8.55,19.22-19.29-.13-10.63-8.46-18.78-19.17-18.75Z"/>
      <line class="cls-2" x1="200.25" y1="223.25" x2="246.25" y2="223.25"/>
      <line class="cls-2" x1="223.25" y1="200.25" x2="223.25" y2="246.25"/>
      <rect class="cls-3" x="88.25" y="88.25" width="270" height="270" rx="10.12" ry="10.12" transform="translate(-92.47 223.25) rotate(-45)"/>
      <path class="cls-1" d="M290.24,382.73v2.45h-2.51v-2.45h-2.49v-4.92h-2.51l-.03-4.49.03-3.11-.04-2.25h2.55v4.9s0,4.94,0,4.94h2.49v4.92h2.51ZM292.73,377.81v4.92h-2.49v-4.92h2.49ZM295.24,372.87v4.94h-2.51v-4.94h2.51ZM292.73,372.87v-4.9h2.51v4.9h-2.51Z"/>
      <path class="cls-1" d="M312.74,382.73v-4.94h-10.02v-2.45h-2.49v-4.92h2.49v4.92h10.02v2.45h2.49v4.94h-2.49ZM312.74,382.73v2.45h-10.02v-2.45h-2.49v-2.47h2.49v2.47h10.02ZM302.73,370.42v-2.45h10.02v2.45h2.49v2.45h-2.49v-2.45h-10.02Z"/>
      <path class="cls-1" d="M342.71,385.18h-9.99v-2.45h-2.49v-12.31h2.49v12.31h9.99v2.45ZM342.71,382.73v-12.31h-9.99v-2.45h9.99v2.45h2.51v12.31h-2.51Z"/>
      <path class="cls-1" d="M365.2,385.18v-2.45h-2.51v-2.47h-2.49v-2.45h-2.51v-2.47h-2.49v-2.47h-2.49v12.31h-2.51v-17.21h2.49v2.45h2.51v2.45h2.49v2.47h2.51v2.47h2.49v2.45h2.51v-12.29h2.51v17.21h-2.51Z"/>
      <path class="cls-1" d="M372.71,385.18v-17.21h12.5v2.45h-10.02v4.92h7.51v2.47h-7.51v4.92h10.02v2.45h-12.5Z"/>
    </g>
  </g>
</svg>