<?xml version="1.0" encoding="UTF-8"?>
<svg xmlns="http://www.w3.org/2000/svg" version="1.1" viewBox="0 0 1500 1500">
  <defs>
    <style>
      .cls-1 {
        fill: #111;
      }
    </style>
  </defs>
  <!-- Generator: Adobe Illustrator 28.7.1, SVG Export Plug-In . SVG Version: 1.2.0 Build 142)  -->
  <g>
    <g id="Warstwa_1">
      <g>
        <g>
          <path class="cls-1" d="M917.37,892.38c10.09,2.84,15.15,14.09,10.68,23.57-6.63,14.07-15.53,26.81-26.67,38.29-15.75,16.32-35.36,28.93-58.59,38.02-23.31,9-49.43,13.5-78.53,13.5-41.31,0-76.92-9.16-106.82-27.49-29.9-18.33-52.89-44.04-68.96-77.08-9.47-19.44-16.16-40.81-20.04-64.07-1.7-10.22,6.34-19.52,16.71-19.52h31.13c8.3,0,15.32,6.08,16.61,14.28,2.71,17.18,7.49,32.53,14.26,46.08,11.25,22.5,26.93,39.46,47.02,51.12,20.09,11.65,43.48,17.44,70.09,17.44,17.36,0,33.03-2.41,47.1-7.39,14.07-4.9,26.2-12.38,36.41-22.34,7.21-6.98,13.23-15.15,18.13-24.56,3.75-7.2,11.84-10.99,19.66-8.79l31.8,8.95Z"/>
          <path class="cls-1" d="M836.73,734.42c-10.48-.01-18.39-9.48-16.65-19.81,2.59-15.34,7.73-30.01,15.35-44.06,10.77-19.96,26.25-37.4,46.17-52.41,20.02-14.95,43.96-26.33,71.97-34.18,39.78-11.14,76.54-11.92,110.27-2.34,33.73,9.58,62.81,28.15,87.19,55.62,14.36,16.16,26.56,34.94,36.57,56.29,4.4,9.38-.85,20.51-10.82,23.3l-29.98,8.4c-7.99,2.24-16.39-1.72-19.84-9.27-7.24-15.82-15.98-29.31-26.16-40.53-16.91-18.64-36.57-30.74-59.06-36.54-22.49-5.8-46.57-5.07-72.19,2.11-16.72,4.68-31.16,11.23-43.36,19.82-12.22,8.51-21.89,18.99-29.03,31.34-5.06,8.67-8.66,18.16-10.83,28.54-1.67,7.95-8.44,13.78-16.56,13.77l-33.04-.05Z"/>
          <path class="cls-1" d="M666.35,607.66c-10.61-27.41-24.84-49.43-42.68-66.07-17.92-16.64-37.7-28.69-59.56-36.17-21.78-7.47-43.8-11.17-66.15-11.17-38.74,0-72.58,9.48-101.51,28.37-28.93,18.89-51.52,45.17-67.59,78.77-16.07,33.6-24.19,72.34-24.19,116.3v.17c0,9.14,7.49,16.63,16.63,16.63h344.1c9.32,0,16.87-7.55,16.87-16.87v-8.85c0-40.03-5.3-73.78-15.91-101.11ZM376.88,679.67c-3.21,0-5.82-2.78-5.49-5.98,1.83-17.71,6.66-34.47,14.61-50.45,10.21-20.66,24.84-37.45,43.97-50.39,19.05-12.94,41.71-19.37,68-19.37,23.79,0,44.53,5.47,62.13,16.48,17.6,10.93,31.19,25.96,40.75,44.93,8.89,17.56,13.62,37.24,14.3,59.16.1,3.07-2.44,5.63-5.51,5.63h-232.75Z"/>
        </g>
        <g>
          <path class="cls-1" d="M1386.52,508.88c-19.98,0-36.17-16.19-36.17-36.17v-167c0-86.05-70.01-156.06-156.06-156.06h-167c-19.98,0-36.17-16.19-36.17-36.17s16.19-36.17,36.17-36.17h167c125.94,0,228.4,102.46,228.4,228.4v167c0,19.98-16.19,36.17-36.17,36.17Z"/>
          <path class="cls-1" d="M113.48,508.88c-19.98,0-36.17-16.19-36.17-36.17v-167c0-125.94,102.46-228.4,228.4-228.4h167c19.98,0,36.17,16.19,36.17,36.17s-16.19,36.17-36.17,36.17h-167c-86.05,0-156.06,70.01-156.06,156.06v167c0,19.98-16.19,36.17-36.17,36.17Z"/>
          <path class="cls-1" d="M472.71,1422.69h-167c-125.94,0-228.4-102.46-228.4-228.4v-167c0-19.98,16.19-36.17,36.17-36.17s36.17,16.19,36.17,36.17v167c0,86.05,70.01,156.06,156.06,156.06h167c19.98,0,36.17,16.19,36.17,36.17s-16.19,36.17-36.17,36.17Z"/>
          <path class="cls-1" d="M1194.29,1422.69h-167c-19.98,0-36.17-16.19-36.17-36.17s16.19-36.17,36.17-36.17h167c86.05,0,156.06-70.01,156.06-156.06v-167c0-19.98,16.19-36.17,36.17-36.17s36.17,16.19,36.17,36.17v167c0,125.94-102.46,228.4-228.4,228.4Z"/>
        </g>
      </g>
    </g>
  </g>
</svg>