<?xml version="1.0" encoding="UTF-8"?>
<svg xmlns="http://www.w3.org/2000/svg" version="1.1" viewBox="0 0 800 800">
  <defs>
    <style>
      .cls-1 {
        isolation: isolate;
      }
    </style>
  </defs>
  <!-- Generator: Adobe Illustrator 28.7.1, SVG Export Plug-In . SVG Version: 1.2.0 Build 142)  -->
  <g>
    <g id="Warstwa_1">
      <g>
        <path d="M486.2,253.1c0,17.3,0,34.5,0,51.8,0,47.8-38.4,86.2-85.8,86.3-48.2,0-87-38.1-87.2-85.9-.1-34.8-.3-69.5,0-104.3.5-45,33-80.8,77.8-86,41.5-4.9,81.6,22.9,92.3,64.5,1.8,7.1,2.5,14.6,2.6,21.9.4,17.2.1,34.5.1,51.8h0ZM330.6,253.3v50.3c0,38.5,29.7,69.5,67.3,70.2,38.9.8,70.4-28.8,71.1-67.7.6-35.5.6-71-.1-106.4-.7-35.9-28.8-65.4-63-67.5-37.6-2.3-69.3,21.6-73.8,58.5l-1.5,62.7h0Z"/>
        <path d="M391,192.3c0-5.6-.1-11.3,0-16.9.1-5.1,3-8.5,8.1-8.7,5.6-.3,8.9,3.2,9.1,8.6.3,11.5.3,23.1,0,34.6-.2,4.9-3,8.4-8.5,8.3-5.7,0-8.5-3.4-8.7-8.9-.2-5.6,0-11.3,0-16.9h0Z"/>
        <g class="cls-1">
          <path d="M55,638.3c-11.7,0-20.1-2.9-25.3-8.7-5.2-5.8-7.7-15.1-7.7-27.8v-12.5h25.3v16c0,3,.4,5.3,1.3,6.9.9,1.7,2.5,2.5,4.7,2.5s3.9-.7,4.8-2c.9-1.4,1.3-3.6,1.3-6.7s-.4-7.2-1.2-9.9c-.8-2.6-2.1-5.2-4-7.6-1.9-2.4-4.6-5.2-8-8.4l-11.5-10.9c-8.6-8.1-12.9-17.4-12.9-27.8s2.5-19.2,7.6-24.9c5.1-5.7,12.4-8.6,22-8.6s20.1,3.1,25,9.4c4.9,6.3,7.4,15.8,7.4,28.5h-26v-8.8c0-1.7-.5-3.1-1.5-4.1-1-1-2.3-1.5-4-1.5s-3.5.6-4.5,1.7c-.9,1.1-1.4,2.6-1.4,4.4s.5,3.7,1.5,5.8c1,2.1,2.9,4.5,5.7,7.2l14.8,14.2c3,2.8,5.7,5.8,8.1,8.9,2.5,3.1,4.5,6.8,6,10.9,1.5,4.1,2.3,9.2,2.3,15.2,0,12-2.2,21.4-6.7,28.3-4.4,6.8-12.2,10.2-23.2,10.2Z"/>
          <path d="M123.2,638.3c-9.3,0-16.7-2.9-22.4-8.7-5.6-5.8-8.5-13.8-8.5-24.2v-59c0-12.4,2.5-21.9,7.4-28.5,4.9-6.6,12.9-9.9,24-9.9s11.5,1.1,16.2,3.3c4.7,2.2,8.4,5.6,11.2,10,2.7,4.4,4.1,10,4.1,16.8v22.1h-25.5v-18.9c0-3.8-.5-6.4-1.5-7.7-1-1.3-2.5-2-4.5-2s-4,.9-4.8,2.6c-.8,1.7-1.2,4-1.2,6.9v64.1c0,3.5.5,6,1.6,7.5,1,1.5,2.5,2.2,4.5,2.2s3.7-.9,4.6-2.7c.9-1.8,1.3-4.1,1.3-7v-23.1h25.7v24.2c0,11.2-2.8,19.4-8.5,24.5-5.7,5.1-13.6,7.6-23.8,7.6Z"/>
          <path d="M164,637.1v-128h39.3c6.5,0,11.5,1.5,14.8,4.5,3.3,3,5.6,7.2,6.7,12.5,1.1,5.4,1.7,11.6,1.7,18.9s-.9,12.6-2.7,16.7c-1.8,4.2-5.1,7.1-10,8.7,4,.8,6.8,2.8,8.5,6,1.6,3.2,2.4,7.3,2.4,12.3v48.4h-25.2v-50.1c0-3.7-.8-6-2.3-6.9-1.5-.9-4-1.3-7.4-1.3v58.4h-25.9ZM190,556.5h6.2c3.5,0,5.3-3.9,5.3-11.6s-.4-8.3-1.2-9.8c-.8-1.6-2.2-2.3-4.4-2.3h-6v23.7Z"/>
          <path d="M265.5,638.3c-10.2,0-18-3.1-23.5-9.3-5.4-6.2-8.1-15.1-8.1-26.8v-60.8c0-11,2.7-19.3,8-24.9,5.4-5.7,13.2-8.5,23.5-8.5s18.2,2.8,23.5,8.5c5.4,5.7,8,14,8,24.9v60.8c0,11.7-2.7,20.6-8.1,26.8-5.4,6.2-13.2,9.3-23.5,9.3ZM265.7,614.7c3.9,0,5.8-3.8,5.8-11.3v-62.5c0-6.3-1.9-9.5-5.7-9.5s-6.4,3.2-6.4,9.7v62.4c0,4,.5,6.8,1.5,8.5,1,1.7,2.6,2.6,4.8,2.6Z"/>
          <path d="M307.4,637.1v-128h25.6v106.2h26.3v21.8h-51.9Z"/>
          <path d="M366.6,637.1v-128h25.6v106.2h26.3v21.8h-51.9Z"/>
          <path d="M460.6,637.1v-128h35.2c9.2,0,16.1,2.6,20.8,7.7,4.7,5.1,7,12.6,7,22.4v59.9c0,12.1-2.1,21.5-6.4,28.1-4.2,6.6-11.7,9.9-22.3,9.9h-34.3ZM486.4,614.5h4.4c4.7,0,7.1-2.3,7.1-6.8v-66c0-4.3-.6-7-1.7-8.3-1.1-1.2-3.5-1.9-6.9-1.9h-2.8v83Z"/>
          <path d="M564.6,638.3c-10.2,0-18-3.1-23.5-9.3-5.4-6.2-8.1-15.1-8.1-26.8v-60.8c0-11,2.7-19.3,8-24.9,5.4-5.7,13.2-8.5,23.5-8.5s18.2,2.8,23.5,8.5c5.4,5.7,8,14,8,24.9v60.8c0,11.7-2.7,20.6-8.1,26.8-5.4,6.2-13.2,9.3-23.5,9.3ZM564.9,614.7c3.9,0,5.8-3.8,5.8-11.3v-62.5c0-6.3-1.9-9.5-5.7-9.5s-6.4,3.2-6.4,9.7v62.4c0,4,.5,6.8,1.5,8.5,1,1.7,2.6,2.6,4.8,2.6Z"/>
          <path d="M616.6,637.1l-13.7-128h25l7.1,80.8,7.2-80.8h23.9l6.8,80.8,6.8-80.8h25.3l-14,128h-30.7l-6.4-61.6-6.1,61.6h-31.2Z"/>
          <path d="M712.6,637.1v-128h26.3l11.8,61.3v-61.3h24.7v128h-25l-12.8-64v64h-25Z"/>
        </g>
      </g>
    </g>
  </g>
</svg>