<?xml version="1.0" encoding="UTF-8"?>
<svg xmlns="http://www.w3.org/2000/svg" version="1.1" viewBox="0 0 800 800">
  <defs>
    <style>
      .cls-1 {
        font-family: Anton-Regular, Anton;
        font-size: 148.93px;
      }
    </style>
  </defs>
  <!-- Generator: Adobe Illustrator 28.7.1, SVG Export Plug-In . SVG Version: 1.2.0 Build 142)  -->
  <g>
    <g id="Warstwa_1">
      <g>
        <path d="M486.23,253.06c0,17.26.03,34.51,0,51.77-.09,47.77-38.35,86.24-85.77,86.28-48.16.04-86.96-38.09-87.16-85.88-.14-34.76-.28-69.52.07-104.28.45-45.04,33-80.77,77.82-86.02,41.53-4.87,81.58,22.92,92.27,64.47,1.82,7.07,2.48,14.57,2.64,21.9.37,17.25.12,34.51.12,51.77ZM330.62,253.31c0,16.75,0,33.51,0,50.26.02,38.46,29.74,69.45,67.28,70.18,38.87.76,70.42-28.79,71.09-67.69.6-35.47.56-70.96-.1-106.43-.66-35.87-28.76-65.38-62.98-67.48-37.58-2.3-69.33,21.61-73.82,58.46l-1.47,62.69Z"/>
        <path d="M391.03,192.27c0-5.65-.12-11.31.05-16.95.15-5.15,2.97-8.48,8.11-8.73,5.6-.27,8.91,3.23,9.06,8.57.33,11.54.34,23.1-.03,34.63-.16,4.86-3,8.37-8.48,8.3-5.72-.07-8.48-3.45-8.68-8.87-.2-5.64-.05-11.3-.04-16.95Z"/>
        <text class="cls-1" transform="translate(18.95 637.12)"><tspan x="0" y="0">SCROLL DOWN</tspan></text>
      </g>
    </g>
  </g>
</svg>