<svg id="logo" xmlns="http://www.w3.org/2000/svg" width="580" height="290" viewBox="0 0 580 290">
  <g id="Rectangle_45429" data-name="Rectangle 45429" fill="#fff" stroke="#707070" stroke-width="1" opacity="0">
    <rect width="580" height="290" stroke="none"/>
    <rect x="0.5" y="0.5" width="579" height="289" fill="none"/>
  </g>
  <g id="Artwork_6" data-name="Artwork 6" transform="translate(286.712 145)">
    <g id="Group_115010" data-name="Group 115010" transform="translate(-266.712 -114.526)">
      <g id="Group_115008" data-name="Group 115008">
        <path id="Path_250020" data-name="Path 250020" d="M95.427,164.9V149.561H78.251v16.982H95.427V164.9Z" transform="translate(-16.118 -30.806)" fill="#f8305b"/>
        <path id="Path_250021" data-name="Path 250021" d="M258.7,170.87h3.949l-3.949-3.948Z" transform="translate(-53.286 -34.382)" fill="#f8305b"/>
        <path id="Path_250022" data-name="Path 250022" d="M533.423,85.787V79.455A27,27,0,0,0,512.8,53.15l-1.077-.263-82.014-17.87h-.014L272.131.685A21.927,21.927,0,0,0,266.722,0h-.2l-.286.007a21.508,21.508,0,0,0-4.941.678L101.609,35.475h0L21.786,52.865l-1.158.283A27.009,27.009,0,0,0,0,79.455v6.332H0v50.7H0v28.474L22.677,177.07l23-.865v-21.15H40.512v-36.3H25.868l-4.878-5.538V95.4H126.35l12.619,12.615v5.929l3.1,2.867v9.924l-8.174,7.588,3.69,3.689h0l1.381,1.381v5.915l3.1,2.882v9.543l-5.969,5.171-1.462,1.267h0v15.009l.272-.01,15.6,1.979V164.2h-2.7V155.08h-4.329V118.5l23.077-23.071h13.5L203.137,118.5v6.524l1.743,1.742V95.426H222.7v9.056l2.273,2.276V126l9.737,9.738,12.011-12.011v-28.3h17.819v9.056l2.275,2.276v30.462l-6.426,6.424v.014l-19.254,19.247-1.259,1.259V183l4.729.491,28.968-.7V164.2h-2.646v-9.115H267.6V137.263h9.816l-1.067-1.37h0L275,134.157H267.6V116.339h2.5l-2.438-3.105H267.6V95.424h59.657v17.809h-3.994V121.4l6.269,6.274v30.086l-5.369,5.148-1.1,1.054v14.273l5.915-.091,9.382-3.169,9.9,5.288,9.046.995,15.506-4.945,8.539-1.042v-1.532a47.619,47.619,0,0,1-19.685-10.832,72.425,72.425,0,0,1-15.241-19.624H334.7v-9.115h-4.3V122.357h-.027V95.424h47.041l12.618,12.615v6.524l2.273,2.272v9.925l-7.466,7.465,1.021,1.022.15.15,1.09,1.09,2.931,2.93v6.524l2.272,2.272v9.544l-5.276,5.147L385.7,164.2V177.03l9.03,5.617,6.589-1.064V163.7h-4.441V137.27h5.293l-.782-.782h0l-3.781-3.781v-6.684l-4.473-4.473V108.04l12.615-12.615h43.191v17.818h-8.522v3.35l12.372,12.371v5.986l.264.263.562.563.714.713.775.775h11.154l-1.779-1.782h0l-1.322-1.324h-8.069V116.339h11.382l-2.758-3.105h-8.624V95.424h59.658v17.809h-7.962v24.03h7.962v17.819h-7.962V164.2h-3.634v12.957l19.716-2.76,10.13-5.287.43-.224v-32.4h0v-50.7ZM221.251,55.108h-5.632V70.6H212.5V55.108h-5.631V52.464h14.377ZM271.963,70.6h-3.114V62.827h-6.228V70.6h-3.114V52.464h3.114v7.643h6.228V52.464h3.114Zm54.793,0h-11.99V52.464h11.887v2.643h-8.772v5.052h5.684v2.59h-5.684v5.208h8.876Z" fill="#f8305b"/>
        <path id="Path_250023" data-name="Path 250023" d="M279.677,202.761l-9.269-9.265-11.2,9.265L247.788,212.2v3.7l32.632,5.868.555.058V204.049h-.009Z" transform="translate(-51.038 -39.856)" fill="#f8305b"/>
        <path id="Path_250024" data-name="Path 250024" d="M206,195.066h14.416l3.121,1.478-4.6-8.174H206Z" transform="translate(-42.432 -38.8)" fill="#f8305b"/>
        <path id="Path_250025" data-name="Path 250025" d="M146.144,188.772v30.007l14.26-.548v-15.2l-1.24-1.24Z" transform="translate(-30.102 -38.883)" fill="#f8305b"/>
        <path id="Path_250026" data-name="Path 250026" d="M227.75,166.8v-1l-11.928-11.929L206,163.682v14.982h14.459l7.138,12.69,4.478,2.118v-6.7H227.75V166.8Z" transform="translate(-42.432 -31.692)" fill="#f8305b"/>
        <path id="Path_250027" data-name="Path 250027" d="M258.7,191.233h7.055l5.014-4.075-8.1-8.094v-7.146l-.023-.023H258.7Z" transform="translate(-53.286 -35.406)" fill="#f8305b"/>
        <path id="Path_250028" data-name="Path 250028" d="M251.172,204l-1.322,1.29h-2.062v4.753L254.977,204l5.333-4.482h-4.544Z" transform="translate(-51.038 -41.096)" fill="#f8305b"/>
        <path id="Path_250029" data-name="Path 250029" d="M458.836,200.073a62.09,62.09,0,0,1-10.823-19.624h-7.949a69.625,69.625,0,0,0,16.408,19.624,48.479,48.479,0,0,0,6.647,4.477A47.506,47.506,0,0,1,458.836,200.073Z" transform="translate(-90.643 -37.168)" fill="#f8305b"/>
        <path id="Path_250030" data-name="Path 250030" d="M64.9,204.915V207.2h3.5v-3.241H64.9Z" transform="translate(-13.368 -42.01)" fill="#f8305b"/>
        <path id="Path_250031" data-name="Path 250031" d="M64.9,221.274l3.5,1.831V214.98H64.9Z" transform="translate(-13.368 -44.281)" fill="#f8305b"/>
        <path id="Path_250032" data-name="Path 250032" d="M119.321,180.425H78.251V219.7l7.765,4.059H87.81l31.426-6.2,5.4-.207v-36.93h-5.313Z" transform="translate(-16.118 -37.162)" fill="#f8305b"/>
        <path id="Path_250033" data-name="Path 250033" d="M217.572,200.074H202.6l-4.143,4.041-1.322,1.29H195.02v17.4l21.293-4.02,16.264-2.084v-9.535l-6.457-3.053Z" transform="translate(-40.169 -41.211)" fill="#f8305b"/>
        <path id="Path_250034" data-name="Path 250034" d="M614.084,224.751l11.208-1.569v-2.671H614.084Z" transform="translate(-126.487 -45.42)" fill="#f8305b"/>
        <path id="Path_250035" data-name="Path 250035" d="M568.824,201.093v-7.872h.024V185.4l-15.763,15.695-.779.776v16.553l16.915.437,7.359.672V202.384h-7.755Z" transform="translate(-113.762 -38.188)" fill="#f8305b"/>
        <rect id="Rectangle_45367" data-name="Rectangle 45367" width="5.8" height="8.213" transform="translate(479.117 164.197)" fill="#f8305b"/>
        <path id="Path_250036" data-name="Path 250036" d="M603.4,225.938l5.8-.812v-4.615h-5.8Z" transform="translate(-124.287 -45.42)" fill="#f8305b"/>
        <path id="Path_250037" data-name="Path 250037" d="M543.231,222.514l2.863.074V206.169h-2.863Z" transform="translate(-111.893 -42.466)" fill="#f8305b"/>
        <path id="Path_250038" data-name="Path 250038" d="M510.889,223.348l8-1.291,11.464.3V206.169h-19.46Z" transform="translate(-105.231 -42.466)" fill="#f8305b"/>
        <path id="Path_250039" data-name="Path 250039" d="M614.084,206.791v6.569l9.3-6.569Z" transform="translate(-126.487 -42.594)" fill="#f8305b"/>
        <path id="Path_250040" data-name="Path 250040" d="M625.894,215.506v-6.278l-8.888,6.278Z" transform="translate(-127.089 -43.096)" fill="#f8305b"/>
        <path id="Path_250041" data-name="Path 250041" d="M358.054,225.122l1.9-.046,1.459-.585v-17.7h-3.361Z" transform="translate(-73.751 -42.594)" fill="#f8305b"/>
        <path id="Path_250042" data-name="Path 250042" d="M295.051,225.014l1.258.131V206.787h-1.258Z" transform="translate(-60.774 -42.593)" fill="#f8305b"/>
        <path id="Path_250043" data-name="Path 250043" d="M453.905,180.449h-.264a58.588,58.588,0,0,0,11.516,19.624,40.919,40.919,0,0,0,9.639,7.788v-6.528l-1.261-1.26Z" transform="translate(-93.439 -37.168)" fill="#f8305b"/>
        <path id="Path_250044" data-name="Path 250044" d="M375.8,221.026l8.378,3.666,5.568-1.564V206.791H375.8Z" transform="translate(-77.406 -42.594)" fill="#f8305b"/>
        <path id="Path_250045" data-name="Path 250045" d="M174.189,264.476l4.244,17.43h2l4.275-17.43.28,17.43h2.84l-.468-24.009h-3.433l-4.493,19.475L174.97,257.9h-3.463l-.468,24.009h2.87Z" transform="translate(-35.23 -53.121)" fill="#f8305b"/>
      </g>
      <g id="Group_115009" data-name="Group 115009" transform="translate(24.715 99.348)">
        <path id="Path_250046" data-name="Path 250046" d="M137.761,162.26h0l14.529,14.526h3.983V166.773l-4.513-4.513h0l-6.077-6.077-.319-.293,10.91-10.3v-10.2L146,125.12H104.61v9.824H141.9l5.542,5.554-.072.072-5.472,5.474H104.61v9.824h26.757Z" transform="translate(-46.262 -125.12)" fill="#36ffff"/>
        <rect id="Rectangle_45368" data-name="Rectangle 45368" width="51.664" height="9.816" transform="translate(246.635 0.001)" fill="#36ffff"/>
        <rect id="Rectangle_45369" data-name="Rectangle 45369" width="43.724" height="9.824" transform="translate(246.635 20.916)" fill="#36ffff"/>
        <rect id="Rectangle_45370" data-name="Rectangle 45370" width="51.664" height="9.826" transform="translate(246.635 41.838)" fill="#36ffff"/>
        <path id="Path_250047" data-name="Path 250047" d="M551.492,166.518V162.26h0v-5.941l-10.276-10.275H514.3l-5.544-5.552,5.544-5.547h33.72v-9.823H510.1L499.828,135.4v10.2L510.1,155.869h26.149l.763.029,5.558,5.519-.836.843h0l-4.668,4.707H503.5v9.814h37.715Z" transform="translate(-127.667 -125.12)" fill="#36ffff"/>
        <rect id="Rectangle_45371" data-name="Rectangle 45371" width="51.664" height="9.826" transform="translate(434.116 41.838)" fill="#36ffff"/>
        <rect id="Rectangle_45372" data-name="Rectangle 45372" width="51.664" height="9.816" transform="translate(434.116 0.001)" fill="#36ffff"/>
        <rect id="Rectangle_45373" data-name="Rectangle 45373" width="43.724" height="9.824" transform="translate(434.116 20.916)" fill="#36ffff"/>
        <path id="Path_250048" data-name="Path 250048" d="M472.447,176.786V166.773l-4.513-4.513h0l-6.077-6.077.072-.072,10.519-10.518v-10.2L462.17,125.12H420.782v9.824h37.2l5.544,5.554-5.544,5.545h-37.2v9.824h25.963l6.393,6.392h0l14.529,14.526Z" transform="translate(-111.386 -125.12)" fill="#36ffff"/>
        <path id="Path_250049" data-name="Path 250049" d="M62.435,162.26h0V134.945H82.789v-9.824H31.126v9.824H52.041V162.26h0v14.522H62.435Z" transform="translate(-31.126 -125.12)" fill="#36ffff"/>
        <path id="Path_250050" data-name="Path 250050" d="M194.089,176.782h2.2V162.26h0V149.881l15.821-15.822.072.072,15.7,15.7V162.26h0v14.522h10.062V162.26h0V145.853l-20.734-20.731H207.016l-20.735,20.731V162.26h0v14.522Z" transform="translate(-63.084 -125.12)" fill="#36ffff"/>
        <path id="Path_250051" data-name="Path 250051" d="M268.945,162.26l14.523,14.521h10.195l14.524-14.521h0l6.211-6.21V125.122H304.388v26.9L294.152,162.26h0l-5.584,5.584-.072-.072-5.512-5.513h0L272.8,152.073V125.122H262.735V156.05l6.21,6.21Z" transform="translate(-78.832 -125.12)" fill="#36ffff"/>
      </g>
      <path id="Path_250052" data-name="Path 250052" d="M212.476,257.9,207.111,281.9h3.306l1.218-6.046h5.148l1.155,6.046h3.34l-5.4-24.009Zm-.373,15.561,2.091-10.819,2.121,10.819Z" transform="translate(-42.66 -53.121)" fill="#f8305b"/>
      <path id="Path_250053" data-name="Path 250053" d="M251.163,268.729a4.785,4.785,0,0,0,1-1.926,9.632,9.632,0,0,0,.312-2.535,7.473,7.473,0,0,0-.8-3.69,4.6,4.6,0,0,0-2.45-2.046,11.742,11.742,0,0,0-4.181-.638h-5.086v24.01h3.526V270.641h2.746l3.306,11.264h3.4l-3.588-12.034A3.9,3.9,0,0,0,251.163,268.729Zm-2.527-2.059a2.461,2.461,0,0,1-1.373,1.215,6.935,6.935,0,0,1-2.434.356h-1.341V260.3h1.559q2.4,0,3.213.934a4.592,4.592,0,0,1,.812,3.038A5.384,5.384,0,0,1,248.636,266.67Z" transform="translate(-49.427 -53.12)" fill="#f8305b"/>
      <path id="Path_250054" data-name="Path 250054" d="M280.344,269.668l-4.275-3.556a5.332,5.332,0,0,1-1.263-1.453,3.718,3.718,0,0,1-.391-1.808,2.532,2.532,0,0,1,.732-1.971,2.93,2.93,0,0,1,2.045-.668,2.994,2.994,0,0,1,2.013.607,3.232,3.232,0,0,1,.982,1.6,11.3,11.3,0,0,1,.375,2.18l3-.771a10.545,10.545,0,0,0-.609-2.743,5.584,5.584,0,0,0-1.216-1.941,4.7,4.7,0,0,0-1.9-1.142,8.538,8.538,0,0,0-2.637-.37,6.191,6.191,0,0,0-4.337,1.453,5.26,5.26,0,0,0-1.592,4.091,6.964,6.964,0,0,0,.593,3.038,6.821,6.821,0,0,0,1.841,2.268l4.243,3.556a14.115,14.115,0,0,1,1.967,2,4.127,4.127,0,0,1,.78,2.623,2.888,2.888,0,0,1-.7,2.089,2.761,2.761,0,0,1-2.075.727,2.81,2.81,0,0,1-2.091-.757,4.331,4.331,0,0,1-1.077-1.94,12.816,12.816,0,0,1-.42-2.462l-3.121.8a9.709,9.709,0,0,0,.874,3.645,5.682,5.682,0,0,0,2.2,2.462,7.726,7.726,0,0,0,6.771.206,5.147,5.147,0,0,0,2.137-1.972,5.815,5.815,0,0,0,.781-3.067,6.885,6.885,0,0,0-1.093-3.9A12.879,12.879,0,0,0,280.344,269.668Z" transform="translate(-55.861 -53.067)" fill="#f8305b"/>
      <rect id="Rectangle_45374" data-name="Rectangle 45374" width="3.463" height="24.009" transform="translate(256.902 204.774)" fill="#f8305b"/>
      <path id="Path_250055" data-name="Path 250055" d="M350.607,279.481a2.81,2.81,0,0,1-2.091-.757,4.323,4.323,0,0,1-1.077-1.94,12.637,12.637,0,0,1-.421-2.462l-3.121.8a9.709,9.709,0,0,0,.874,3.645,5.682,5.682,0,0,0,2.2,2.462,7.726,7.726,0,0,0,6.771.206,5.147,5.147,0,0,0,2.137-1.972,5.808,5.808,0,0,0,.781-3.067,6.891,6.891,0,0,0-1.093-3.9,12.9,12.9,0,0,0-2.527-2.831l-4.275-3.556a5.331,5.331,0,0,1-1.263-1.453,3.718,3.718,0,0,1-.391-1.808,2.529,2.529,0,0,1,.733-1.971,2.926,2.926,0,0,1,2.045-.668,3,3,0,0,1,2.013.607,3.226,3.226,0,0,1,.982,1.6,11.3,11.3,0,0,1,.375,2.18l3-.771a10.546,10.546,0,0,0-.609-2.743,5.572,5.572,0,0,0-1.216-1.941,4.7,4.7,0,0,0-1.9-1.142,8.547,8.547,0,0,0-2.638-.37,6.191,6.191,0,0,0-4.337,1.453,5.26,5.26,0,0,0-1.592,4.091,6.965,6.965,0,0,0,.593,3.038,6.821,6.821,0,0,0,1.841,2.268l4.243,3.556a14.115,14.115,0,0,1,1.967,2,4.127,4.127,0,0,1,.78,2.623,2.882,2.882,0,0,1-.7,2.089A2.755,2.755,0,0,1,350.607,279.481Z" transform="translate(-70.835 -53.067)" fill="#f8305b"/>
      <path id="Path_250056" data-name="Path 250056" d="M399.857,257.9h-3.463l-.468,24.009h2.87l.28-17.43,4.244,17.43h2l4.275-17.43.28,17.43h2.839l-.466-24.009h-3.433l-4.493,19.475Z" transform="translate(-81.551 -53.121)" fill="#f8305b"/>
      <rect id="Rectangle_45375" data-name="Rectangle 45375" width="3.463" height="24.009" transform="translate(344.578 204.774)" fill="#f8305b"/>
      <path id="Path_250057" data-name="Path 250057" d="M458.256,265.514l7.27,16.392h2.247V257.9H464.84v15.947L457.663,257.9h-2.4v24.009h3Z" transform="translate(-93.773 -53.121)" fill="#f8305b"/>
      <path id="Path_250058" data-name="Path 250058" d="M497.656,279.5h-6.334v-8.8h5.086v-2.372h-5.086v-7.943H497.6V257.9h-9.8v24.009h9.859Z" transform="translate(-100.475 -53.121)" fill="#f8305b"/>
    </g>
  </g>
</svg>
