<svg xmlns="http://www.w3.org/2000/svg" width="300" height="160.649" viewBox="0 0 300 160.649">
  <g id="logo-white-stroke" transform="translate(150 80.325)">
    <g id="Group_118728" data-name="Group 118728" transform="translate(-150 -80.325)">
      <path id="Path_256704" data-name="Path 256704" d="M108.736,136.411l-2.43,10.535-2.414-10.535h-1.873l-.252,12.987h1.552l.152-9.428,2.3,9.428h1.081l2.312-9.428.152,9.428h1.535l-.252-12.987Z" transform="translate(-21.964 -29.441)" fill="#fff"/>
      <path id="Path_256705" data-name="Path 256705" d="M124.425,136.41l-2.9,12.987h1.789l.659-3.271h2.784l.625,3.271h1.807l-2.92-12.987Zm-.2,8.418,1.131-5.852,1.147,5.852Z" transform="translate(-26.228 -29.441)" fill="#fff"/>
      <path id="Path_256706" data-name="Path 256706" d="M145.575,142.271a2.6,2.6,0,0,0,.54-1.042,5.2,5.2,0,0,0,.169-1.371,4.029,4.029,0,0,0-.43-2,2.488,2.488,0,0,0-1.324-1.106,6.354,6.354,0,0,0-2.262-.345h-2.751V149.4h1.906v-6.093h1.486L144.7,149.4h1.84l-1.941-6.51a2.116,2.116,0,0,0,.979-.617m-1.367-1.114a1.334,1.334,0,0,1-.743.657,3.76,3.76,0,0,1-1.317.193h-.726v-4.3h.845a2.275,2.275,0,0,1,1.738.5,2.493,2.493,0,0,1,.439,1.644,2.91,2.91,0,0,1-.237,1.3" transform="translate(-30.111 -29.441)" fill="#fff"/>
      <path id="Path_256707" data-name="Path 256707" d="M161.571,142.777l-2.312-1.924a2.906,2.906,0,0,1-.685-.786,2.022,2.022,0,0,1-.21-.979,1.369,1.369,0,0,1,.4-1.066,1.583,1.583,0,0,1,1.106-.361,1.618,1.618,0,0,1,1.088.329,1.741,1.741,0,0,1,.532.866,6.058,6.058,0,0,1,.2,1.179l1.62-.416a5.725,5.725,0,0,0-.329-1.484,3.017,3.017,0,0,0-.658-1.05,2.537,2.537,0,0,0-1.03-.618,4.624,4.624,0,0,0-1.426-.2,3.346,3.346,0,0,0-2.345.786,2.844,2.844,0,0,0-.862,2.213,3.779,3.779,0,0,0,.321,1.644,3.7,3.7,0,0,0,1,1.226l2.3,1.924a7.76,7.76,0,0,1,1.065,1.083,2.241,2.241,0,0,1,.421,1.419,1.558,1.558,0,0,1-.38,1.13,1.486,1.486,0,0,1-1.122.393,1.523,1.523,0,0,1-1.132-.409,2.356,2.356,0,0,1-.582-1.05,6.849,6.849,0,0,1-.227-1.332l-1.688.434a5.256,5.256,0,0,0,.473,1.972,3.068,3.068,0,0,0,1.19,1.33,4.176,4.176,0,0,0,3.662.113,2.786,2.786,0,0,0,1.157-1.066,3.15,3.15,0,0,0,.422-1.659,3.727,3.727,0,0,0-.591-2.109,6.97,6.97,0,0,0-1.367-1.531" transform="translate(-33.804 -29.41)" fill="#fff"/>
      <rect id="Rectangle_46451" data-name="Rectangle 46451" width="1.873" height="12.987" transform="translate(145.303 106.969)" fill="#fff"/>
      <path id="Path_256708" data-name="Path 256708" d="M201.388,142.777l-2.312-1.924a2.906,2.906,0,0,1-.685-.786,2.022,2.022,0,0,1-.21-.979,1.372,1.372,0,0,1,.4-1.066,1.587,1.587,0,0,1,1.106-.361,1.618,1.618,0,0,1,1.088.329,1.741,1.741,0,0,1,.532.866,6.059,6.059,0,0,1,.2,1.179l1.62-.416a5.726,5.726,0,0,0-.329-1.484,3.017,3.017,0,0,0-.658-1.05,2.537,2.537,0,0,0-1.03-.618,4.624,4.624,0,0,0-1.426-.2,3.346,3.346,0,0,0-2.345.786,2.844,2.844,0,0,0-.862,2.213,3.791,3.791,0,0,0,.321,1.644,3.7,3.7,0,0,0,1,1.226l2.3,1.924a7.8,7.8,0,0,1,1.064,1.083,2.241,2.241,0,0,1,.421,1.419,1.558,1.558,0,0,1-.38,1.13,1.486,1.486,0,0,1-1.122.393,1.523,1.523,0,0,1-1.132-.409,2.356,2.356,0,0,1-.582-1.05,6.847,6.847,0,0,1-.227-1.332l-1.688.434a5.256,5.256,0,0,0,.473,1.972,3.068,3.068,0,0,0,1.19,1.33,4.176,4.176,0,0,0,3.662.113,2.786,2.786,0,0,0,1.157-1.066,3.15,3.15,0,0,0,.422-1.659,3.727,3.727,0,0,0-.591-2.109,6.968,6.968,0,0,0-1.367-1.531" transform="translate(-42.398 -29.41)" fill="#fff"/>
      <path id="Path_256709" data-name="Path 256709" d="M231.909,136.411l-2.43,10.535-2.414-10.535h-1.873L224.94,149.4h1.552l.152-9.428,2.3,9.428h1.081l2.312-9.428.152,9.428h1.535l-.253-12.987Z" transform="translate(-48.548 -29.441)" fill="#fff"/>
      <rect id="Rectangle_46452" data-name="Rectangle 46452" width="1.873" height="12.987" transform="translate(192.728 106.969)" fill="#fff"/>
      <path id="Path_256710" data-name="Path 256710" d="M262.619,145.037l-3.882-8.626h-1.3V149.4h1.62v-8.867l3.933,8.867h1.215V136.411h-1.587Z" transform="translate(-55.562 -29.441)" fill="#fff"/>
      <path id="Path_256711" data-name="Path 256711" d="M277.165,143.338h2.751v-1.283h-2.751v-4.3h3.392v-1.346h-5.3V149.4h5.333v-1.3h-3.426Z" transform="translate(-59.408 -29.441)" fill="#fff"/>
      <path id="Path_256712" data-name="Path 256712" d="M64.617,75.3V80.61H84.786l3,3-.038.039-2.959,2.959H64.617v5.315H79.09l11.317,11.314h2.155V97.827L86.833,92.1l-.173-.158,5.9-5.569V80.853L87,75.3Z" transform="translate(-13.946 -16.251)" fill="#fff"/>
      <rect id="Rectangle_46453" data-name="Rectangle 46453" width="27.946" height="5.31" transform="translate(152.518 59.046)" fill="#fff"/>
      <rect id="Rectangle_46454" data-name="Rectangle 46454" width="23.651" height="5.314" transform="translate(152.518 70.359)" fill="#fff"/>
      <rect id="Rectangle_46455" data-name="Rectangle 46455" width="27.946" height="5.315" transform="translate(152.518 81.676)" fill="#fff"/>
      <path id="Path_256713" data-name="Path 256713" d="M288.913,86.614l-3-3,3-3h18.24V75.3H286.64l-5.558,5.557V86.37l5.558,5.559h14.145l.412.016L304.2,94.93l-2.978,3H283.068v5.31h20.4l5.558-5.553V92.172l-5.558-5.558Z" transform="translate(-60.665 -16.251)" fill="#fff"/>
      <rect id="Rectangle_46456" data-name="Rectangle 46456" width="27.946" height="5.315" transform="translate(253.93 81.676)" fill="#fff"/>
      <rect id="Rectangle_46457" data-name="Rectangle 46457" width="27.946" height="5.31" transform="translate(253.93 59.046)" fill="#fff"/>
      <rect id="Rectangle_46458" data-name="Rectangle 46458" width="23.651" height="5.314" transform="translate(253.929 70.358)" fill="#fff"/>
      <path id="Path_256714" data-name="Path 256714" d="M237.788,75.3V80.61h20.123l3,3-3,3H237.788v5.315h14.044l11.317,11.314h2.585V97.827L260.005,92.1l.039-.038,5.69-5.689V80.853L260.175,75.3Z" transform="translate(-51.321 -16.251)" fill="#fff"/>
      <path id="Path_256715" data-name="Path 256715" d="M24.368,80.611H35.682v22.631H41.3V80.611h11.01V75.3H24.368Z" transform="translate(-5.259 -16.251)" fill="#fff"/>
      <path id="Path_256716" data-name="Path 256716" d="M137.3,103.241V86.511L126.079,75.3h-5.514L109.349,86.511v16.73h5.415V88.689l8.558-8.557.04.038,8.49,8.493v14.578H137.3Z" transform="translate(-23.601 -16.251)" fill="#fff"/>
      <path id="Path_256717" data-name="Path 256717" d="M179.17,75.3h-5.415V89.849L165.2,98.406l-.038-.038-8.492-8.493V75.3h-5.443v16.73l11.215,11.214h5.514L179.17,92.026Z" transform="translate(-32.638 -16.251)" fill="#fff"/>
      <path id="Path_256718" data-name="Path 256718" d="M153.3,53.659H155V45.212h3.07V43.771h-7.839v1.441H153.3Z" transform="translate(-32.424 -9.447)" fill="#fff"/>
      <path id="Path_256719" data-name="Path 256719" d="M193.623,53.659V43.771h-1.7v4.167h-3.4V43.771h-1.7v9.888h1.7V49.421h3.4v4.238Z" transform="translate(-40.323 -9.447)" fill="#fff"/>
      <path id="Path_256720" data-name="Path 256720" d="M231.794,52.218h-4.84V49.38h3.1V47.966h-3.1V45.212h4.784V43.771h-6.481V53.66h6.538Z" transform="translate(-48.617 -9.447)" fill="#fff"/>
      <path id="Path_256721" data-name="Path 256721" d="M150,3.9a12.411,12.411,0,0,1,3.07.388l.072.018.072.016L283.989,32.817l.511.125a15.182,15.182,0,0,1,11.6,14.789v65.187a15.184,15.184,0,0,1-11.6,14.789l-.579.142L153.186,156.331l-.073.016-.071.018a12.245,12.245,0,0,1-3.035.381h-.058a12.437,12.437,0,0,1-3.017-.387l-.072-.019-.071-.015L16.015,127.833l-.515-.126A15.182,15.182,0,0,1,3.9,112.918V47.731A15.182,15.182,0,0,1,15.5,32.942l.584-.143L146.814,4.318l.071-.016.071-.018a12.189,12.189,0,0,1,2.772-.377l.16,0ZM150,0h-.332l-.027,0a16.133,16.133,0,0,0-3.658.5L15.2,29l-.632.154A19.077,19.077,0,0,0,0,47.731v65.187A19.077,19.077,0,0,0,14.572,131.5l.564.138,130.822,28.5a16.279,16.279,0,0,0,4.042.511h.013a16.215,16.215,0,0,0,4-.5L284.8,131.652l.629-.154A19.076,19.076,0,0,0,300,112.918V47.731a19.076,19.076,0,0,0-14.574-18.58l-.561-.136L154.042.511A16.323,16.323,0,0,0,150,0" fill="#fff"/>
    </g>
  </g>
</svg>
